 <svg id="empty_cart" version="1.1" xmlns="http://www.w3.org/2000/svg" xmlns:xlink="http://www.w3.org/1999/xlink" viewBox="0 0 2000 2000">
    <title>Empty cart</title>
    <defs><style>.emptycart-cls-1,.emptycart-cls-3{fill:#e1edf5;}.emptycart-cls-1{stroke:#e1edf5;}.emptycart-cls-1,.emptycart-cls-2,.emptycart-cls-3,.emptycart-cls-4,.emptycart-cls-5{stroke-linecap:round;stroke-linejoin:round;stroke-width:6px;}.emptycart-cls-2,.emptycart-cls-4{fill:none;}.emptycart-cls-2{stroke:#1d1d1b;}.emptycart-cls-3,.emptycart-cls-4{stroke:#313232;}.emptycart-cls-5{fill:#6b7d1f;stroke:#6b7d1f;}</style></defs>
    <path class="emptycart-cls-1" d="M1367.79,1536.81c40.15-31.9,98.15-77.74,132.71-114.27,22.75-345.11,14.7-694.68,20.51-1040.49-137.61-24.55-278.91-19.58-417.91-4.82s-276.85,39.22-415.9,53.53a459.81,459.81,0,0,1-84,1.2c-42.5,55.62-96.52,115.15-139,170.76l-60,913.1c139.2,10.94,278,17.61,417.2,28.55,49.36,3.88,98.75,7.76,148.25,8.87,56.69,1.28,113.4-1.08,170.06-3.44C1214.64,1546.69,1292.92,1539.93,1367.79,1536.81Z"></path>
    <path class="emptycart-cls-2" d="M1367.79,1536.81c2-323,6.71-645.72,22-968.32,45.83-60.94,88.94-123.08,131.24-186.44"></path>
    <path class="emptycart-cls-2" d="M464.23,602.72c282,11.23,477.28-17.46,759.15-32.22,29.26-1.53,138-7.45,166.74-1.69"></path>
    <path class="emptycart-cls-2" d="M762.56,601C747.31,566,731.5,529.08,722.49,492a331.26,331.26,0,0,1-8.43-102.87C717.13,348.31,728.69,306.51,756,276s72.86-47,111-31.92c20.81,8.26,37.33,24.65,51.38,42.09,44.42,55.13,69.32,123.16,91,190.56,11.2,34.85,21.95,70.41,32.49,105.46"></path>
    <path class="emptycart-cls-2" d="M912.1,401.79c7-29.76,22.11-57.41,35.17-84.29,19.46-40.09,40.5-80,70.2-113.24s69.17-59.52,113.33-65.51c12.51-1.69,25.33-1.74,37.67.95a87.75,87.75,0,0,1,56.75,41.62c16.44,28.72,15.11,64.46,7.24,96.61s-20.65,58.33-28.08,90.58"></path>
    <path class="emptycart-cls-2" d="M718.26,1172.68c3.22-14.68,11.46-27.77,20.6-39.69,36-47,91.94-81.63,151.15-80.43,41.48.84,81.13,18.89,114.42,43.64s61.07,56,88.59,87.08"></path>
    <path class="emptycart-cls-3" d="M894.36,962.89q-17.39,29.24-33.88,59c-22.56,40.69-44.09,82.72-53.66,128.25-2.07,9.83-3,21.57,4.35,28.42,3.89,3.63,9.51,5,14.82,4.6,15.16-1.26,25.55-15.32,33.85-28.06l100.74-154.68"></path>
    <path class="emptycart-cls-4" d="M809.24,971.89a23.48,23.48,0,0,0,22.94-9.78"></path>
    <path class="emptycart-cls-4" d="M985.46,956.79A24.5,24.5,0,0,0,1007.9,972"></path>
    <line class="emptycart-cls-4" x1="603.25" y1="431.96" x2="603.25" y2="605.25"></line>
    <path class="emptycart-cls-5" d="M551.08,1630c-41.27-29.8-92.29-44.48-143.15-46.63s-101.67,7.71-150.07,23.5c-27.8,9.06-55.2,20.21-79.36,36.71s-45,38.68-56.45,65.6c23.44,19.06,53.5,33.85,83.14,39.65s60.12,6,90.27,4.16c40.41-2.51,81-8.87,118.62-23.71C464.69,1709.31,512.06,1667.87,551.08,1630Z"></path>
    <path class="emptycart-cls-5" d="M1052.45,1750.45a174.32,174.32,0,0,1-220.92-86.94c31.28,4.83,67-2.36,98.49.72C982.67,1669.36,1025,1705.26,1052.45,1750.45Z"></path>
    <path class="emptycart-cls-5" d="M1806.1,1407.66c-41,.81-81.47,10.37-120.52,23-109.16,35.41-211.5,97-284.44,185.63-21.35,25.93-40.83,56.3-40.82,89.9,91.38,21.31,191.52,3.57,266.24-53.16,33.43-25.39,61.58-57.13,86.65-90.79C1748.18,1515.3,1783.12,1461.51,1806.1,1407.66Z"></path>
    <path class="emptycart-cls-5" d="M1713.49,1344.34a187.84,187.84,0,0,1-82.23,2c-13.71-2.75-27.46-7.23-38.26-16.11-12.54-10.31-20.87-26.29-36-32.27C1612,1281.71,1674.29,1302.62,1713.49,1344.34Z"></path>
    <path class="emptycart-cls-4" d="M1279,1768c158.74-130.66,345-240.88,527.14-360.35"></path>
    <path class="emptycart-cls-4" d="M123.23,1710.87c164.28-55.53,337.91-91.38,510.78-77.72"></path>
  </svg>