<svg width="60px" viewBox="577 306.51 729.89 1457.09" xmlns="http://www.w3.org/2000/svg">
          <defs><style>.viewedall-cls-1{fill:#f7b83e;stroke:#f7b83e;}.viewedall-cls-1,.viewedall-cls-2,.viewedall-cls-3,.viewedall-cls-4,.viewedall-cls-5,.viewedall-cls-6{stroke-linecap:round;stroke-linejoin:round;stroke-width:6px;}.viewedall-cls-2{fill:#cca587;}.viewedall-cls-2,.viewedall-cls-3,.viewedall-cls-4,.viewedall-cls-6{stroke:#313232;}.viewedall-cls-3{fill:none;}.viewedall-cls-4{fill:#fff;}.viewedall-cls-5{fill:#e1edf5;stroke:#e1edf5;}.viewedall-cls-6{fill:#313232;}</style></defs><path class="viewedall-cls-1" d="M695.75,1676.46c-25.17,3.73-50.61,8.34-73,20.38C599,1709.65,582,1733.67,580,1760.6H825.63l13.14-84.14Z"></path><path class="viewedall-cls-2" d="M838.77,1676.46l53.89-345-145.18-3.48-46.91,347.81-4.82.71Z"></path><path class="viewedall-cls-2" d="M710.62,706.48a1229.43,1229.43,0,0,1-107.9-281.82c-2.65-10.75-5-21.82-4.66-33,.3-8.77,1.9-23,12.2-25.3,6.29-1.38,12.82,2.25,16.74,7.36,4.26,5.54,5.77,12.14,8.06,18.54,2.92,8.16,6.22,19.24,8.92,26.4-2.51-18.18-3.39-44.34.62-62.26.92-4.09,2.21-8.2,4.68-11.59s6.28-6,10.47-6.21c5.36-.24,10.16,3.44,13.44,7.69,5.76,7.5,8.25,16.93,10.61,26.08a94.3,94.3,0,0,1-1.62-33.94c.65-4.7,1.88-9.71,5.53-12.74s8.89-3.26,13.18-1.48,7.63,5.38,10,9.4A63.74,63.74,0,0,1,716,346.58c5.77,18.09,9.18,36.25,14.94,54.34,1.47-7.91,2.38-15.41,3.39-21a44.88,44.88,0,0,1,6.73-17.34c3.58-5.46,10.51-9.25,16.73-7.25,7.76,2.48,10.55,11.9,11.58,20,2.92,23.1,1,46.5.83,69.78a456.11,456.11,0,0,0,37.16,182.92"></path><path class="viewedall-cls-2" d="M1059.79,662.41l-2.08-167.35c-.39-31.66-2-63.86,1.31-95.4q.87-8.31,2.25-16.57a68,68,0,0,1,3.82-14.91,27.28,27.28,0,0,1,9.2-12.12c4.22-2.93,9.75-4.21,14.65-2.66,5.23,1.65,9.07,6.19,11.51,11.1s3.73,10.28,5.67,15.4a335.64,335.64,0,0,1,12.42-42.76c2.52-6.75,5.4-13.48,9.93-19.08,3.37-4.15,7.88-7.71,13.17-8.43a14.82,14.82,0,0,1,10.7,2.77c3.87,2.9,6.09,7.58,7,12.33s.58,9.63.28,14.46a64.79,64.79,0,0,1,6.93-11.61,22.05,22.05,0,0,1,10.84-7.9c4.37-1.27,9.46-.52,12.77,2.59,2.31,2.17,3.56,5.23,4.43,8.27,2.57,9,2.33,18.53,1.94,27.88,1.64-4.75,3.5-9.11,6.66-13s8.12-6.75,13.1-6c6.73,1,10.91,7.91,12.84,14.44,3.48,11.71,2.83,24.21,1.65,36.37-4.08,42-29.67,230.17-34.92,275.85"></path><line class="viewedall-cls-3" x1="700.57" y1="1675.75" x2="838.88" y2="1675.75"></line><path class="viewedall-cls-4" d="M860,1540.63c-47.25-7.13-94.39-8.19-140.07-8.35l-19.35,143.47H838.88Z"></path><path class="viewedall-cls-3" d="M677.62,1679.5s13.77,11.48,19,23.69"></path><path class="viewedall-cls-3" d="M700.57,1675.75s11.56,8.12,16.45,21.55"></path><path class="viewedall-cls-3" d="M701.22,1676.46c-12.2-3.33-24.49-6.69-35.84-12.29s-21.8-13.65-28.25-24.53c-2.73-4.61-4.74-9.83-4.61-15.19s2.7-10.86,7.36-13.52a18.71,18.71,0,0,1,16.09-1.06c9.3,3.8,16.44,11.53,22.21,19.76C688,1643.65,695.21,1660.43,701.22,1676.46Z"></path><path class="viewedall-cls-3" d="M701.22,1676.46c12.2-3.33,24.5-6.69,35.84-12.29s21.8-13.65,28.25-24.53c2.74-4.61,4.74-9.83,4.61-15.19s-2.7-10.86-7.35-13.52a18.73,18.73,0,0,0-16.1-1.06c-9.3,3.8-16.44,11.53-22.21,19.76C714.43,1643.65,707.24,1660.43,701.22,1676.46Z"></path><path class="viewedall-cls-1" d="M1188.08,1676.46c25.18,3.73,50.62,8.34,73,20.38,23.78,12.81,40.78,36.83,42.81,63.76H1058.21l-13.14-84.14Z"></path><path class="viewedall-cls-2" d="M1045.07,1676.46l-53.9-345,145.19-3.48,46.91,347.81,4.81.71Z"></path><line class="viewedall-cls-3" x1="1183.26" y1="1675.75" x2="1044.96" y2="1675.75"></line><path class="viewedall-cls-4" d="M1023.85,1540.63c47.24-7.13,94.39-8.19,140.07-8.35l19.35,143.47H1045Z"></path><path class="viewedall-cls-3" d="M1206.22,1679.5s-13.78,11.48-19,23.69"></path><path class="viewedall-cls-3" d="M1183.27,1675.75s-11.57,8.12-16.45,21.55"></path><path class="viewedall-cls-3" d="M1182.61,1676.46c12.21-3.33,24.5-6.69,35.84-12.29s21.81-13.65,28.26-24.53c2.73-4.61,4.73-9.83,4.6-15.19s-2.7-10.86-7.35-13.52a18.73,18.73,0,0,0-16.1-1.06c-9.3,3.8-16.43,11.53-22.2,19.76C1195.82,1643.65,1188.63,1660.43,1182.61,1676.46Z"></path><path class="viewedall-cls-3" d="M1182.61,1676.46c-12.2-3.33-24.49-6.69-35.83-12.29s-21.81-13.65-28.26-24.53c-2.73-4.61-4.73-9.83-4.6-15.19s2.7-10.86,7.35-13.52a18.73,18.73,0,0,1,16.1-1.06c9.3,3.8,16.43,11.53,22.2,19.76C1169.41,1643.65,1176.6,1660.43,1182.61,1676.46Z"></path><path class="viewedall-cls-4" d="M758.93,1085.68c-10.16,24.75-17,50.71-23.3,76.72q-23,95.14-36.74,192.23c72.66,4,144.8,10.84,217.47,14.82,9.58-39.55,18.63-80,25.56-120.12,10.9,38.88,20.62,78.36,27.91,118.08,72.44.23,143.65-2.8,215.94-7.43-13.15-90-28.35-175.92-49.49-264.44"></path><path class="viewedall-cls-3" d="M732.41,1175.55c32.1-4.27,61.44-25.49,75.55-54.64"></path><path class="viewedall-cls-3" d="M1060,1118c3.37,16.15,15.94,29,29.93,37.74a113.4,113.4,0,0,0,61.9,17.15"></path><path class="viewedall-cls-5" d="M1211.86,663.1a3648.93,3648.93,0,0,0-42.63,454c-149.29,2.25-297.85,2.22-447.13,4.46,23.23-138.72,6.45-293.91-47.82-423.68a688,688,0,0,1,139-71.59c22.55,55.48,41.6,116.07,84.07,158.29,15.22,15.13,36.86,31,59.18,31.81,22.64.79,44.37-12.08,58.41-29.16,32.08-39,31.26-92,35.31-139.56C1103.16,649.94,1159.59,654.89,1211.86,663.1Z"></path><path class="viewedall-cls-3" d="M1105.05,375.33a412.32,412.32,0,0,1,10.61,58.13"></path><path class="viewedall-cls-3" d="M1160.26,337.38a513.22,513.22,0,0,0-18.8,58.95"></path><path class="viewedall-cls-3" d="M1196.15,357.87q-4.41,26.65-11.15,52.86"></path><path class="viewedall-cls-3" d="M731.46,397.43q-2.64,20.7-6,41.28"></path><path class="viewedall-cls-3" d="M681.87,366.82q7.32,26.46,16.41,52.4"></path><path class="viewedall-cls-3" d="M641.33,404.31a230.48,230.48,0,0,0,8.17,35.16"></path><path class="viewedall-cls-6" d="M908.56,800.24c-9.74,5.29-22.1,5.74-31.95.66s-16.76-15.69-16.87-26.77,6.86-22,17.14-26.19c-9.47-.46-18.36-7.36-22.27-16s-3.51-18.85-.1-27.7c2.44-6.36,7.13-12.65,13.87-13.74-5.4-7.83-6.93-19.26-4.45-28.45a30.18,30.18,0,0,1,18.47-20.32,27.49,27.49,0,0,1,26.8,4.85c-.61-15.19,11-30,25.93-33.08s31.37,5.76,36.93,19.91c5.35-9.53,17.15-15,28-13.69s20.56,8.48,26.08,17.92,7.06,20.88,5.54,31.71c7-3.4,15.31.43,21.26,5.48a39.19,39.19,0,0,1-5.09,63.37c9.94,10.47,9.59,29.06,1.12,40.75s-24.81,16.66-38.64,12.52c-6.93,2.87-15.43,3.69-22.82,5C961.72,800.93,931.57,787.73,908.56,800.24Z"></path><path class="viewedall-cls-2" d="M921.1,823.09c-6.44-6.16-10.76-14.27-13.59-22.72-5.07-15.17-5.54-31.57-3.77-47.47,1-8.83,2.65-17.64,6.07-25.84,7.45-17.89,23.76-32.13,42.77-35.91s40.1,3.6,51.7,19.13c6.38,8.55,9.78,19,11.5,29.54a106.81,106.81,0,0,1-2,43.88c-4,15.25-11.8,30.11-24.75,39.07-8.21,5.68-18,8.62-27.79,9.91-8.67,1.13-18.06,1.6-26.48-1.23A36.78,36.78,0,0,1,921.1,823.09Z"></path><path class="viewedall-cls-3" d="M928.34,741c3.34,10.87,6.88,22.11,14.44,30.61,4.11,4.64,9.71,8.42,15.9,8.61a20.52,20.52,0,0,0,12.59-4.39,44.08,44.08,0,0,0,9.18-9.94,105.26,105.26,0,0,0,9.45-16"></path><path class="viewedall-cls-3" d="M950.74,744c1.31-4.2,2.8-8.34,4.42-12.43,1.7-4.3,2.74-9.5,6.23-12.8,4.25-4,10-1.53,12.24,3.29,1.76,3.74,1.57,8.18.94,12.16a167.88,167.88,0,0,1-3.88,17"></path><path class="viewedall-cls-3" d="M929.76,729c1.08,3.39,4.26,6.21,7.82,6.23a8.9,8.9,0,0,0,5.07-1.71,15.76,15.76,0,0,0,3.73-3.91"></path><path class="viewedall-cls-3" d="M977.05,730.37a8.9,8.9,0,0,0,2.61,4.59,8.55,8.55,0,0,0,4.34,2.53,8.16,8.16,0,0,0,5-.81,24.88,24.88,0,0,0,4.25-2.82"></path><path class="viewedall-cls-3" d="M814.64,943.16c-.54-14.25-.68-26.52-.41-40.78,4.64-.77,9.23-1.19,13.64.43,3.48,1.28,6.84,3.84,7.58,7.47a9.07,9.07,0,0,1-3,8.18,14.87,14.87,0,0,1-8.21,3.53,44.25,44.25,0,0,1-9.06,0"></path><path class="viewedall-cls-3" d="M870.92,941a230.35,230.35,0,0,1,12.54-37.39c6.94,11.85,13.69,24,18.84,36.7"></path><path class="viewedall-cls-3" d="M928.75,901.32A307.21,307.21,0,0,1,967.21,899"></path><path class="viewedall-cls-3" d="M876.67,926.15a171.69,171.69,0,0,1,18.15.09"></path><path class="viewedall-cls-3" d="M949.23,900.79q.76,17.58,2.17,35.13"></path><path class="viewedall-cls-3" d="M1020.69,929.37a9.07,9.07,0,0,1-5,2.57,14.39,14.39,0,0,1-12.1-3.64A18.22,18.22,0,0,1,998,916.79a18.93,18.93,0,0,1,5.19-15.39,15.66,15.66,0,0,1,15.48-3.91"></path><path class="viewedall-cls-3" d="M1058.7,895.13l1.71,35.53"></path><path class="viewedall-cls-3" d="M1086,895.1l1.94,36"></path><path class="viewedall-cls-3" d="M1060.47,913.39l25.63-.12"></path>
        </svg>